{
  "accessors": [
    {
      "bufferView": 2,
      "componentType": 5126,
      "count": 21,
      "max": [
        0.0,
        -6.932683944702148,
        2.892805337905884
      ],
      "min": [
        -3.411358118057251,
        -8.153916358947754,
        -2.7647643089294434
      ],
      "type": "VEC3"
    },
    {
      "bufferView": 2,
      "byteOffset": 252,
      "componentType": 5126,
      "count": 21,
      "max": [
        0.608974277973175,
        0.9946776032447815,
        0.9983232617378235
      ],
      "min": [
        -0.9728126525878906,
        -0.3534444272518158,
        -0.9756923317909241
      ],
      "type": "VEC3"
    },
    {
      "bufferView": 1,
      "componentType": 5126,
      "count": 21,
      "max": [
        0.6780632734298706,
        0.8707109689712524
      ],
      "min": [
        0.0020536184310913086,
        0.6763630509376526
      ],
      "type": "VEC2"
    },
    {
      "bufferView": 0,
      "componentType": 5125,
      "count": 75,
      "type": "SCALAR"
    },
    {
      "bufferView": 2,
      "byteOffset": 504,
      "componentType": 5126,
      "count": 358,
      "max": [
        2.8494131565093994,
        2.779676914215088,
        3.5475950241088867
      ],
      "min": [
        -2.8494131565093994,
        -7.958324909210205,
        -2.7204933166503906
      ],
      "type": "VEC3"
    },
    {
      "bufferView": 2,
      "byteOffset": 4800,
      "componentType": 5126,
      "count": 358,
      "max": [
        0.9997402429580688,
        1.0,
        1.0
      ],
      "min": [
        -0.9997401833534241,
        -0.9998279809951782,
        -0.9971100091934204
      ],
      "type": "VEC3"
    },
    {
      "bufferView": 1,
      "byteOffset": 168,
      "componentType": 5126,
      "count": 358,
      "max": [
        1.9978673458099365,
        0.8397315144538879
      ],
      "min": [
        0.0015726089477539063,
        0.0015611856942996383
      ],
      "type": "VEC2"
    },
    {
      "bufferView": 2,
      "byteOffset": 9096,
      "componentType": 5126,
      "count": 358,
      "max": [
        0.5494085550308228,
        1.0924290418624878,
        0.28622400760650635
      ],
      "min": [
        -0.5494085550308228,
        -1.077650785446167,
        -1.0830461978912354
      ],
      "type": "VEC3"
    },
    {
      "bufferView": 2,
      "byteOffset": 13392,
      "componentType": 5126,
      "count": 358,
      "max": [
        0.9877888560295105,
        0.4624733328819275,
        0.8214505910873413
      ],
      "min": [
        -0.9877888560295105,
        -0.9414995908737183,
        -0.5548807382583618
      ],
      "type": "VEC3"
    },
    {
      "bufferView": 0,
      "byteOffset": 300,
      "componentType": 5125,
      "count": 1560,
      "type": "SCALAR"
    },
    {
      "bufferView": 2,
      "byteOffset": 17688,
      "componentType": 5126,
      "count": 358,
      "max": [
        2.8494131565093994,
        2.779676914215088,
        3.5475950241088867
      ],
      "min": [
        -2.8494131565093994,
        -7.958324909210205,
        -2.7204933166503906
      ],
      "type": "VEC3"
    },
    {
      "bufferView": 2,
      "byteOffset": 21984,
      "componentType": 5126,
      "count": 358,
      "max": [
        0.9997402429580688,
        1.0,
        1.0
      ],
      "min": [
        -0.9997401833534241,
        -0.9998279809951782,
        -0.9971100091934204
      ],
      "type": "VEC3"
    },
    {
      "bufferView": 1,
      "byteOffset": 3032,
      "componentType": 5126,
      "count": 358,
      "max": [
        1.9978673458099365,
        0.8397315144538879
      ],
      "min": [
        0.0015726089477539063,
        0.0015611856942996383
      ],
      "type": "VEC2"
    },
    {
      "bufferView": 2,
      "byteOffset": 26280,
      "componentType": 5126,
      "count": 358,
      "max": [
        0.5494085550308228,
        1.0924290418624878,
        0.28622400760650635
      ],
      "min": [
        -0.5494085550308228,
        -1.077650785446167,
        -1.0830461978912354
      ],
      "type": "VEC3"
    },
    {
      "bufferView": 2,
      "byteOffset": 30576,
      "componentType": 5126,
      "count": 358,
      "max": [
        0.9877888560295105,
        0.4624733328819275,
        0.8214505910873413
      ],
      "min": [
        -0.9877888560295105,
        -0.9414995908737183,
        -0.5548807382583618
      ],
      "type": "VEC3"
    },
    {
      "bufferView": 0,
      "byteOffset": 6540,
      "componentType": 5125,
      "count": 1560,
      "type": "SCALAR"
    },
    {
      "bufferView": 3,
      "componentType": 5126,
      "count": 50,
      "max": [
        10.0
      ],
      "min": [
        0.03999999910593033
      ],
      "type": "SCALAR"
    },
    {
      "bufferView": 3,
      "byteOffset": 200,
      "componentType": 5126,
      "count": 50,
      "max": [
        1.0
      ],
      "min": [
        0.0
      ],
      "type": "SCALAR"
    },
    {
      "bufferView": 3,
      "byteOffset": 400,
      "componentType": 5126,
      "count": 34,
      "max": [
        10.0
      ],
      "min": [
        0.03999999910593033
      ],
      "type": "SCALAR"
    },
    {
      "bufferView": 3,
      "byteOffset": 536,
      "componentType": 5126,
      "count": 34,
      "max": [
        1.0
      ],
      "min": [
        0.0
      ],
      "type": "SCALAR"
    }
  ],
  "animations": [
    {
      "channels": [
        {
          "sampler": 0,
          "target": {
            "node": 6,
            "path": "weights"
          }
        },
        {
          "sampler": 1,
          "target": {
            "node": 8,
            "path": "weights"
          }
        }
      ],
      "name": "Animation",
      "samplers": [
        {
          "input": 16,
          "interpolation": "LINEAR",
          "output": 17
        },
        {
          "input": 18,
          "interpolation": "LINEAR",
          "output": 19
        }
      ]
    }
  ],
  "asset": {
    "extras": {
      "author": "rukitu (https://sketchfab.com/rukitu)",
      "license": "CC-BY-4.0 (http://creativecommons.org/licenses/by/4.0/)",
      "source": "https://sketchfab.com/3d-models/pop-cat-2d1c8b8514684b0a8d1b8203caa01a95",
      "title": "POP CAT"
    },
    "generator": "Sketchfab-12.67.0",
    "version": "2.0"
  },
  "bufferViews": [
    {
      "buffer": 0,
      "byteLength": 12780,
      "name": "floatBufferViews",
      "target": 34963
    },
    {
      "buffer": 0,
      "byteLength": 5896,
      "byteOffset": 12780,
      "byteStride": 8,
      "name": "floatBufferViews",
      "target": 34962
    },
    {
      "buffer": 0,
      "byteLength": 34872,
      "byteOffset": 18676,
      "byteStride": 12,
      "name": "floatBufferViews",
      "target": 34962
    },
    {
      "buffer": 0,
      "byteLength": 672,
      "byteOffset": 53548,
      "name": "floatBufferViews"
    }
  ],
  "buffers": [
    {
      "byteLength": 54220,
      "uri": "scene.bin"
    }
  ],
  "extensionsUsed": [
    "KHR_materials_unlit"
  ],
  "images": [
    {
      "uri": "textures/Material.004_baseColor.png"
    }
  ],
  "materials": [
    {
      "doubleSided": true,
      "emissiveFactor": [
        0.8075229983,
        0.8075229983,
        0.8075229983
      ],
      "emissiveTexture": {
        "index": 0
      },
      "extensions": {
        "KHR_materials_unlit": {}
      },
      "name": "Material.004",
      "pbrMetallicRoughness": {
        "baseColorTexture": {
          "index": 0
        },
        "metallicFactor": 0.0
      }
    }
  ],
  "meshes": [
    {
      "name": "Object_0",
      "primitives": [
        {
          "attributes": {
            "NORMAL": 1,
            "POSITION": 0,
            "TEXCOORD_0": 2
          },
          "indices": 3,
          "material": 0,
          "mode": 4
        }
      ]
    },
    {
      "name": "mesh_1",
      "primitives": [
        {
          "attributes": {
            "NORMAL": 5,
            "POSITION": 4,
            "TEXCOORD_0": 6
          },
          "indices": 9,
          "material": 0,
          "mode": 4,
          "targets": [
            {
              "NORMAL": 8,
              "POSITION": 7
            }
          ]
        }
      ],
      "weights": [
        0.0
      ]
    },
    {
      "name": "mesh_2",
      "primitives": [
        {
          "attributes": {
            "NORMAL": 11,
            "POSITION": 10,
            "TEXCOORD_0": 12
          },
          "indices": 15,
          "material": 0,
          "mode": 4,
          "targets": [
            {
              "NORMAL": 14,
              "POSITION": 13
            }
          ]
        }
      ],
      "weights": [
        0.0
      ]
    }
  ],
  "nodes": [
    {
      "children": [
        1
      ],
      "matrix": [
        1.0,
        0.0,
        0.0,
        0.0,
        0.0,
        2.220446049250313e-16,
        -1.0,
        0.0,
        0.0,
        1.0,
        2.220446049250313e-16,
        0.0,
        0.0,
        0.0,
        0.0,
        1.0
      ],
      "name": "Sketchfab_model"
    },
    {
      "children": [
        2
      ],
      "name": "root"
    },
    {
      "children": [
        3,
        5,
        7
      ],
      "matrix": [
        1.0,
        0.0,
        0.0,
        0.0,
        0.0,
        2.220446049250313e-16,
        1.0,
        0.0,
        0.0,
        -1.0,
        2.220446049250313e-16,
        0.0,
        0.0,
        0.0,
        0.0,
        1.0
      ],
      "name": "GLTF_SceneRootNode"
    },
    {
      "children": [
        4
      ],
      "matrix": [
        1.2108289003372192,
        0.0,
        0.0,
        0.0,
        0.0,
        1.2108289003372192,
        0.0,
        0.0,
        0.0,
        0.0,
        1.2108289003372192,
        0.0,
        0.48426246643066406,
        7.965067386627197,
        -0.9926722645759583,
        1.0
      ],
      "name": "tail_1"
    },
    {
      "mesh": 0,
      "name": "Object_4"
    },
    {
      "children": [
        6
      ],
      "name": "cat_6",
      "scale": [
        1.2108289003372192,
        1.2108289003372192,
        1.2108289003372192
      ],
      "translation": [
        0.48426246643066406,
        7.722672939300537,
        -0.9926722645759583
      ]
    },
    {
      "mesh": 1,
      "name": "mesh_1"
    },
    {
      "children": [
        8
      ],
      "name": "cat.001_7",
      "scale": [
        1.2108289003372192,
        1.2108289003372192,
        1.2108289003372192
      ],
      "translation": [
        9.641672134399414,
        7.722672939300537,
        -0.9926722645759583
      ]
    },
    {
      "mesh": 2,
      "name": "mesh_2"
    }
  ],
  "samplers": [
    {
      "magFilter": 9729,
      "minFilter": 9987,
      "wrapS": 10497,
      "wrapT": 10497
    }
  ],
  "scene": 0,
  "scenes": [
    {
      "name": "Sketchfab_Scene",
      "nodes": [
        0
      ]
    }
  ],
  "textures": [
    {
      "sampler": 0,
      "source": 0
    }
  ]
}
